HIERARCHY
ROOT hip
{
  OFFSET 0 0 0
  CHANNELS 6 Xposition Yposition Zposition Zrotation Yrotation Xrotation
  JOINT abdomen
  {
    OFFSET 0 20.6881 -0.73152
    CHANNELS 3 Zrotation Xrotation Yrotation
    JOINT chest
    {
      OFFSET 0 11.7043 -0.48768
      CHANNELS 3 Zrotation Xrotation Yrotation
      JOINT neck
      {
        OFFSET 0 22.1894 -2.19456
        CHANNELS 3 Zrotation Xrotation Yrotation
        JOINT head
        {
          OFFSET -0.24384 7.07133 1.2192
          CHANNELS 3 Zrotation Xrotation Yrotation
          JOINT leftEye
          {
            OFFSET 4.14528 8.04674 8.04672
            CHANNELS 3 Zrotation Xrotation Yrotation
            End Site
            {
              OFFSET 1 0 0
            }
          }
          JOINT rightEye
          {
            OFFSET -3.6576 8.04674 8.04672
            CHANNELS 3 Zrotation Xrotation Yrotation
            End Site
            {
              OFFSET 1 0 0
            }
          }
        }
      }
      JOINT rCollar
      {
        OFFSET -2.68224 19.2634 -4.8768
        CHANNELS 3 Zrotation Xrotation Yrotation
        JOINT rShldr
        {
          OFFSET -8.77824 -1.95073 1.46304
          CHANNELS 3 Zrotation Xrotation Yrotation
          JOINT rForeArm
          {
            OFFSET -28.1742 -1.7115 0.48768
            CHANNELS 3 Zrotation Xrotation Yrotation
            JOINT rHand
            {
              OFFSET -22.5879 0.773209 7.07136
              CHANNELS 3 Zrotation Xrotation Yrotation
              JOINT rThumb1
              {
                OFFSET -1.2192 -0.487915 3.41376
                CHANNELS 3 Zrotation Xrotation Yrotation
                JOINT rThumb2
                {
                  OFFSET -3.37035 -0.52449 3.41376
                  CHANNELS 3 Zrotation Xrotation Yrotation
                  End Site
                  {
                    OFFSET -1.78271 -1.18214 1.43049
                  }
                }
              }
              JOINT rIndex1
              {
                OFFSET -7.75947 0.938293 5.60832
                CHANNELS 3 Zrotation Xrotation Yrotation
                JOINT rIndex2
                {
                  OFFSET -2.54057 -0.884171 1.56538
                  CHANNELS 3 Zrotation Xrotation Yrotation
                  End Site
                  {
                    OFFSET -1.62519 -0.234802 1.16502
                  }
                }
              }
              JOINT rMid1
              {
                OFFSET -8.24714 1.18213 3.41376
                CHANNELS 3 Zrotation Xrotation Yrotation
                JOINT rMid2
                {
                  OFFSET -3.10165 -0.590103 1.0647
                  CHANNELS 3 Zrotation Xrotation Yrotation
                  End Site
                  {
                    OFFSET -2.48547 -0.328903 0.83742
                  }
                }
              }
              JOINT rRing1
              {
                OFFSET -8.82822 0.546677 1.51678
                CHANNELS 3 Zrotation Xrotation Yrotation
                JOINT rRing2
                {
                  OFFSET -2.60934 -0.819778 -0.0198488
                  CHANNELS 3 Zrotation Xrotation Yrotation
                  End Site
                  {
                    OFFSET -2.33842 -0.294052 0.168128
                  }
                }
              }
              JOINT rPinky1
              {
                OFFSET -8.27202 -0.0477905 -0.4584
                CHANNELS 3 Zrotation Xrotation Yrotation
                JOINT rPinky2
                {
                  OFFSET -1.82734 -0.647385 -0.700984
                  CHANNELS 3 Zrotation Xrotation Yrotation
                  End Site
                  {
                    OFFSET -1.69225 -0.51767 -0.607171
                  }
                }
              }
            }
          }
        }
      }
      JOINT lCollar
      {
        OFFSET 2.68224 19.2634 -4.8768
        CHANNELS 3 Zrotation Xrotation Yrotation
        JOINT lShldr
        {
          OFFSET 8.77824 -1.95073 1.46304
          CHANNELS 3 Zrotation Xrotation Yrotation
          JOINT lForeArm
          {
            OFFSET 28.1742 -1.7115 0.48768
            CHANNELS 3 Zrotation Xrotation Yrotation
            JOINT lHand
            {
              OFFSET 22.5879 0.773209 7.07136
              CHANNELS 3 Zrotation Xrotation Yrotation
              JOINT lThumb1
              {
                OFFSET 1.2192 -0.487915 3.41376
                CHANNELS 3 Zrotation Xrotation Yrotation
                JOINT lThumb2
                {
                  OFFSET 3.37035 -0.52449 3.41376
                  CHANNELS 3 Zrotation Xrotation Yrotation
                  End Site
                  {
                    OFFSET 1.78271 -1.18214 1.43049
                  }
                }
              }
              JOINT lIndex1
              {
                OFFSET 7.75947 0.938293 5.60832
                CHANNELS 3 Zrotation Xrotation Yrotation
                JOINT lIndex2
                {
                  OFFSET 2.54057 -0.884171 1.56538
                  CHANNELS 3 Zrotation Xrotation Yrotation
                  End Site
                  {
                    OFFSET 1.62519 -0.234802 1.16502
                  }
                }
              }
              JOINT lMid1
              {
                OFFSET 8.24714 1.18213 3.41376
                CHANNELS 3 Zrotation Xrotation Yrotation
                JOINT lMid2
                {
                  OFFSET 3.10165 -0.590103 1.0647
                  CHANNELS 3 Zrotation Xrotation Yrotation
                  End Site
                  {
                    OFFSET 2.48547 -0.328903 0.83742
                  }
                }
              }
              JOINT lRing1
              {
                OFFSET 8.82822 0.546677 1.51678
                CHANNELS 3 Zrotation Xrotation Yrotation
                JOINT lRing2
                {
                  OFFSET 2.60934 -0.819778 -0.0198488
                  CHANNELS 3 Zrotation Xrotation Yrotation
                  End Site
                  {
                    OFFSET 2.33842 -0.294052 0.168128
                  }
                }
              }
              JOINT lPinky1
              {
                OFFSET 8.27202 -0.0477905 -0.4584
                CHANNELS 3 Zrotation Xrotation Yrotation
                JOINT lPinky2
                {
                  OFFSET 1.82734 -0.647385 -0.700984
                  CHANNELS 3 Zrotation Xrotation Yrotation
                  End Site
                  {
                    OFFSET 1.69225 -0.51767 -0.607171
                  }
                }
              }
            }
          }
        }
      }
    }
  }
  JOINT rButtock
  {
    OFFSET -8.77824 4.35084 1.2192
    CHANNELS 3 Zrotation Xrotation Yrotation
    JOINT rThigh
    {
      OFFSET 0 -1.70687 -2.19456
      CHANNELS 3 Zrotation Xrotation Yrotation
      JOINT rShin
      {
        OFFSET 0 -36.8199 0.73152
        CHANNELS 3 Zrotation Xrotation Yrotation
        JOINT rFoot
        {
          OFFSET 0.73152 -45.1104 -5.12064
          CHANNELS 3 Zrotation Xrotation Yrotation
          End Site
          {
            OFFSET -1.1221 -3.69964 12.103
          }
        }
      }
    }
  }
  JOINT lButtock
  {
    OFFSET 8.77824 4.35084 1.2192
    CHANNELS 3 Zrotation Xrotation Yrotation
    JOINT lThigh
    {
      OFFSET 0 -1.70687 -2.19456
      CHANNELS 3 Zrotation Xrotation Yrotation
      JOINT lShin
      {
        OFFSET 0 -36.8199 0.73152
        CHANNELS 3 Zrotation Xrotation Yrotation
        JOINT lFoot
        {
          OFFSET -0.73152 -45.1104 -5.12064
          CHANNELS 3 Zrotation Xrotation Yrotation
          End Site
          {
            OFFSET 1.1221 -3.69964 12.103
          }
        }
      }
    }
  }
}
MOTION
Frames:	4
Frame Time:	0.03333
-7.4223 9.5866 -0.4628 143.417993 -80.468307 -140.327113 6.463348 71.336978 159.519728 -28.674331 55.641545 -161.496765 -30.77505 -4.295031 -91.498512 -50.472764 -5.519207 80.544756 19.926449 12.534256 64.024636 -30.848828 11.070662 -38.707663 89.267008 -71.413249 48.631411 -28.978867 -74.382961 -25.70274 -6.90956 -18.247939 -111.272975 171.614502 -12.569216 145.397728 44.949517 -30.692109 -1.163202 -65.581419 23.087252 11.458868 -166.299752 15.122452 122.893029 79.712048 -0.038777 135.962939 -30.126622 -52.156643 -161.23224 165.903926 -61.04738 -29.355762 -97.287785 -12.680584 169.670143 87.152028 -38.403439 81.547728 -25.45625 43.931774 15.439594 112.021521 -64.270387 56.860031 -10.921508 51.33486 3.217968 130.855398 0.701475 -107.027572 107.354183 29.276416 123.809341 -56.329227 -63.388939 -24.958096 -63.804428 2.643757 -2.195546 120.638246 37.861939 -72.982913 1.390686 -29.693113 -3.087813 177.002575 14.518397 -69.386772 86.667276 -44.036486 -169.129236 121.284203 26.943625 -46.838269 135.783313 43.673043 -121.503327 165.867215 2.211293 -27.185444 -124.583145 62.142558 -27.434981 -37.34522 -14.56095 44.939968 -0.119838 0.92818 7.357151 32.678513 -49.106538 40.316988 52.420089 64.783995 -162.136645 3.812106 -64.76479 44.929733 173.808607 77.230461 4.368944 117.895301 21.156522 -100.816452 -86.545782 -50.986355 -35.105486 157.152869 14.431923 87.51461
-7.7198 8.206 -0.6517000000000001 156.062499 -75.861902 -154.900787 6.161125 46.448467 -4.296462 3.546506 -27.085552 -10.974176 -10.299147 -21.164737 78.400891 79.231036 29.671027 -116.161165 42.552328 9.63754 24.430929 -17.420037 8.363815 -51.02746 25.48234 4.045607 19.754588 13.558295 10.455217 -2.169129 175.644253 10.71184 77.23854 -177.239555 3.821634 147.399641 66.246443 -54.308817 -4.465528 62.263088 -65.13095 47.906723 146.585242 -82.374795 117.900372 -11.772829 14.838872 -107.240059 111.125831 14.774258 -36.798388 -34.364474 73.971463 -128.159805 -49.125497 43.449374 110.481777 -2.263325 66.934313 110.039156 177.989924 3.002299 -149.619266 151.74715 65.667406 174.420048 136.303896 -31.327694 176.69797 -122.618835 39.402106 121.238839 3.556649 15.12338 -85.752213 -20.615354 -17.023454 16.313846 -103.040131 -13.61098 -21.877549 63.556452 -7.99655 -6.937277 55.743168 -4.002632 10.528611 90.696183 20.773698 114.554436 101.046804 -48.027742 -156.005169 171.831358 29.566501 -73.151423 44.867291 -22.65117 -36.879143 -85.520904 78.152543 -87.880378 66.328481 -5.664978 171.99522 -69.290196 -38.200742 -70.830319 169.040008 75.402868 -0.0 -142.577703 18.869465 -67.087879 -47.807907 48.111324 103.546289 -53.243715 -0.019744 -93.534548 -77.189693 34.243281 -54.253423 55.439447 -24.304263 -74.899961 -90.040238 -5.750567 173.237407 -128.646704 -8.513224 -72.787408
-8.0734 8.635 -0.868 159.212029 -56.317205 -162.70201 -3.613291 52.429593 -8.36795 5.305761 -40.121498 8.20612 -21.627118 -12.060075 -22.340001 -60.336196 45.750067 25.945474 145.063348 -14.185159 43.146485 -22.674183 4.893997 -24.064549 -39.143777 59.247286 29.781346 -114.713178 -1.777195 130.007067 2.627457 -55.054593 -105.705885 -179.338735 -13.47002 149.582239 -105.156182 38.052318 96.533413 -167.92027 -74.811621 117.230288 -124.666929 8.438384 120.985258 140.344389 58.329213 79.571258 24.187031 -58.484256 -128.007499 17.509188 22.457833 143.274423 61.055463 -12.432532 14.753316 146.823583 2.958567 -126.230002 -4.855933 78.033236 54.914728 52.056466 -87.121827 57.278136 73.563353 62.044822 -91.098673 176.796192 1.642431 -129.988171 -151.142518 -11.281921 -24.562385 -60.921274 64.843159 126.853416 124.955099 -15.144784 -109.337136 -5.213979 49.05346 11.993755 41.662056 69.88183 27.465424 -4.077802 10.410899 142.068097 -47.381998 -82.047508 19.095238 -145.87818 -20.993448 177.731368 -138.524342 4.475754 -159.631527 139.59178 -0.497823 2.916652 152.32969 57.067027 102.858522 -4.4981 -19.531519 7.399091 -7.02938 1.8586 9.346155 32.945475 -41.261013 150.210147 67.605029 -39.960081 156.70076 67.644312 16.049521 51.152895 167.380047 78.801335 -0.0 130.020589 16.176324 -180.0 110.425656 -75.770498 12.365837 -76.99046 -59.820284 -78.59896
-8.5634 10.2935 -1.2036 154.862177 -47.743285 -164.128075 -7.670768 54.619422 -20.876511 14.881914 -42.410208 28.01893 -22.946824 15.770264 -14.492373 -33.270641 17.117886 -0.06298 145.922621 -6.51145 21.030237 -22.788185 3.397027 -16.741155 -25.358652 28.906145 -1.299057 -84.893784 -14.136509 163.572893 -166.766138 29.836349 -113.897123 -6.734669 -4.102328 16.086823 49.429219 -10.789771 -36.683178 43.085809 -59.952208 40.392318 26.783662 -40.916298 -31.981724 -19.262219 -24.688373 -127.17889 140.46265 66.870312 -40.059317 -113.769498 30.546522 -87.195032 58.146149 4.283526 -9.070366 18.678426 57.765378 -46.119779 77.45761 47.316746 -40.487136 -150.147326 -41.497568 -176.561847 71.834135 58.341965 -92.229775 -105.228497 -51.536486 -91.691057 -76.08203 17.617614 -123.782309 -39.123896 13.321839 96.628498 165.392013 -86.076931 -91.805977 -80.401496 52.837339 24.663565 21.017001 44.211639 51.423068 108.076677 68.242999 88.934425 157.807465 -7.079069 -139.729506 -39.653073 -30.936275 -75.66204 81.324724 0.973294 -20.835529 -134.27881 27.613586 10.671816 141.222499 25.815616 118.806149 -19.34374 37.877145 21.067392 -50.100047 6.105195 -11.103278 76.502146 -18.020432 -180.0 69.016796 -57.749927 152.426265 150.122601 55.626409 -15.886028 -71.506863 43.113155 -37.337157 84.235149 -42.471889 -9.679783 -89.378776 38.861305 150.559932 95.654657 -34.948989 50.74694
